<mxfile host="app.diagrams.net" modified="2021-09-22T18:12:31.790Z" agent="5.0 (Windows NT 10.0; Win64; x64) AppleWebKit/537.36 (KHTML, like Gecko) Chrome/93.0.4577.82 Safari/537.36" etag="2AHbWqzGXd4VQdzq44p_" version="14.9.4" type="github">
  <diagram id="J0CAj3hpxYdUKnIAC_Rt" name="Page-1">
    <mxGraphModel dx="2980" dy="1871" grid="0" gridSize="10" guides="1" tooltips="1" connect="1" arrows="1" fold="1" page="0" pageScale="1" pageWidth="1100" pageHeight="850" math="0" shadow="0">
      <root>
        <mxCell id="0" />
        <mxCell id="1" parent="0" />
        <mxCell id="o6UnCo15VA87cQb3SErj-36" value="Confluent Cloud" style="points=[[0,0],[0.25,0],[0.5,0],[0.75,0],[1,0],[1,0.25],[1,0.5],[1,0.75],[1,1],[0.75,1],[0.5,1],[0.25,1],[0,1],[0,0.75],[0,0.5],[0,0.25]];outlineConnect=0;gradientColor=none;html=1;whiteSpace=wrap;fontSize=10;fontStyle=0;shape=mxgraph.aws4.group;grIcon=mxgraph.aws4.group_aws_cloud_alt;strokeColor=#232F3E;fillColor=none;verticalAlign=top;align=left;spacingLeft=30;fontColor=#232F3E;dashed=0;" parent="1" vertex="1">
          <mxGeometry x="-90" y="-207" width="250" height="150" as="geometry" />
        </mxCell>
        <mxCell id="o6UnCo15VA87cQb3SErj-2" value="VPC" style="points=[[0,0],[0.25,0],[0.5,0],[0.75,0],[1,0],[1,0.25],[1,0.5],[1,0.75],[1,1],[0.75,1],[0.5,1],[0.25,1],[0,1],[0,0.75],[0,0.5],[0,0.25]];outlineConnect=0;gradientColor=none;html=1;whiteSpace=wrap;fontSize=10;fontStyle=0;shape=mxgraph.aws4.group;grIcon=mxgraph.aws4.group_vpc;strokeColor=#248814;fillColor=none;verticalAlign=top;align=left;spacingLeft=30;fontColor=#AAB7B8;dashed=0;" parent="1" vertex="1">
          <mxGeometry x="-586" y="-510" width="441" height="670" as="geometry" />
        </mxCell>
        <mxCell id="o6UnCo15VA87cQb3SErj-103" value="SaaS" style="points=[[0,0],[0.25,0],[0.5,0],[0.75,0],[1,0],[1,0.25],[1,0.5],[1,0.75],[1,1],[0.75,1],[0.5,1],[0.25,1],[0,1],[0,0.75],[0,0.5],[0,0.25]];outlineConnect=0;gradientColor=none;html=1;whiteSpace=wrap;fontSize=12;fontStyle=0;shape=mxgraph.aws4.group;grIcon=mxgraph.aws4.group_aws_cloud;strokeColor=#232F3E;fillColor=none;verticalAlign=top;align=left;spacingLeft=30;fontColor=#232F3E;dashed=0;" parent="1" vertex="1">
          <mxGeometry x="-90" y="-40" width="250" height="260" as="geometry" />
        </mxCell>
        <mxCell id="o6UnCo15VA87cQb3SErj-86" value="Billing" style="rounded=1;whiteSpace=wrap;html=1;fontSize=10;labelPosition=center;verticalLabelPosition=top;align=center;verticalAlign=bottom;" parent="1" vertex="1">
          <mxGeometry x="-40" y="-499" width="160" height="109" as="geometry" />
        </mxCell>
        <mxCell id="o6UnCo15VA87cQb3SErj-85" value="Policy Admin" style="rounded=1;whiteSpace=wrap;html=1;fontSize=10;labelPosition=center;verticalLabelPosition=top;align=center;verticalAlign=bottom;" parent="1" vertex="1">
          <mxGeometry x="-40" y="-649" width="160" height="102" as="geometry" />
        </mxCell>
        <mxCell id="o6UnCo15VA87cQb3SErj-23" value="DB Subnet" style="points=[[0,0],[0.25,0],[0.5,0],[0.75,0],[1,0],[1,0.25],[1,0.5],[1,0.75],[1,1],[0.75,1],[0.5,1],[0.25,1],[0,1],[0,0.75],[0,0.5],[0,0.25]];outlineConnect=0;gradientColor=none;html=1;whiteSpace=wrap;fontSize=10;fontStyle=0;shape=mxgraph.aws4.group;grIcon=mxgraph.aws4.group_security_group;grStroke=0;strokeColor=#147EBA;fillColor=#E6F2F8;verticalAlign=top;align=left;spacingLeft=30;fontColor=#147EBA;dashed=0;" parent="1" vertex="1">
          <mxGeometry x="-417.5" y="-73" width="220" height="178" as="geometry" />
        </mxCell>
        <mxCell id="o6UnCo15VA87cQb3SErj-1" value="AWS Cloud" style="points=[[0,0],[0.25,0],[0.5,0],[0.75,0],[1,0],[1,0.25],[1,0.5],[1,0.75],[1,1],[0.75,1],[0.5,1],[0.25,1],[0,1],[0,0.75],[0,0.5],[0,0.25]];outlineConnect=0;gradientColor=none;html=1;whiteSpace=wrap;fontSize=10;fontStyle=0;shape=mxgraph.aws4.group;grIcon=mxgraph.aws4.group_aws_cloud;strokeColor=#232F3E;fillColor=none;verticalAlign=top;align=left;spacingLeft=30;fontColor=#232F3E;dashed=0;" parent="1" vertex="1">
          <mxGeometry x="-726" y="-700" width="604" height="923" as="geometry" />
        </mxCell>
        <mxCell id="o6UnCo15VA87cQb3SErj-20" value="App Subnet" style="points=[[0,0],[0.25,0],[0.5,0],[0.75,0],[1,0],[1,0.25],[1,0.5],[1,0.75],[1,1],[0.75,1],[0.5,1],[0.25,1],[0,1],[0,0.75],[0,0.5],[0,0.25]];outlineConnect=0;gradientColor=none;html=1;whiteSpace=wrap;fontSize=10;fontStyle=0;shape=mxgraph.aws4.group;grIcon=mxgraph.aws4.group_security_group;grStroke=0;strokeColor=#147EBA;fillColor=#E6F2F8;verticalAlign=top;align=left;spacingLeft=30;fontColor=#147EBA;dashed=0;" parent="1" vertex="1">
          <mxGeometry x="-420" y="-280.5" width="220" height="187.5" as="geometry" />
        </mxCell>
        <mxCell id="o6UnCo15VA87cQb3SErj-50" value="" style="edgeStyle=orthogonalEdgeStyle;rounded=0;orthogonalLoop=1;jettySize=auto;html=1;fontSize=10;" parent="1" source="o6UnCo15VA87cQb3SErj-4" target="o6UnCo15VA87cQb3SErj-21" edge="1">
          <mxGeometry relative="1" as="geometry">
            <mxPoint x="-495" y="-353" as="targetPoint" />
          </mxGeometry>
        </mxCell>
        <mxCell id="o6UnCo15VA87cQb3SErj-56" style="edgeStyle=orthogonalEdgeStyle;rounded=0;orthogonalLoop=1;jettySize=auto;html=1;entryX=1;entryY=0.5;entryDx=0;entryDy=0;entryPerimeter=0;fontSize=10;" parent="1" source="o6UnCo15VA87cQb3SErj-4" target="o6UnCo15VA87cQb3SErj-10" edge="1">
          <mxGeometry relative="1" as="geometry" />
        </mxCell>
        <mxCell id="o6UnCo15VA87cQb3SErj-57" style="edgeStyle=orthogonalEdgeStyle;rounded=0;orthogonalLoop=1;jettySize=auto;html=1;entryX=1;entryY=0.75;entryDx=0;entryDy=0;entryPerimeter=0;fontSize=10;" parent="1" source="o6UnCo15VA87cQb3SErj-4" target="o6UnCo15VA87cQb3SErj-25" edge="1">
          <mxGeometry relative="1" as="geometry" />
        </mxCell>
        <mxCell id="o6UnCo15VA87cQb3SErj-4" value="Cloud Front" style="outlineConnect=0;dashed=0;verticalLabelPosition=bottom;verticalAlign=top;align=center;html=1;shape=mxgraph.aws3.cloudfront;fillColor=#F58536;gradientColor=none;fontSize=10;" parent="1" vertex="1">
          <mxGeometry x="-525" y="-600" width="60" height="60" as="geometry" />
        </mxCell>
        <mxCell id="o6UnCo15VA87cQb3SErj-10" value="S3 - Static/ Bounded Context&amp;nbsp;" style="points=[[0,0,0],[0.25,0,0],[0.5,0,0],[0.75,0,0],[1,0,0],[0,1,0],[0.25,1,0],[0.5,1,0],[0.75,1,0],[1,1,0],[0,0.25,0],[0,0.5,0],[0,0.75,0],[1,0.25,0],[1,0.5,0],[1,0.75,0]];outlineConnect=0;fontColor=#232F3E;gradientColor=#60A337;gradientDirection=north;fillColor=#277116;strokeColor=#ffffff;dashed=0;verticalLabelPosition=bottom;verticalAlign=top;align=center;html=1;fontSize=10;fontStyle=0;aspect=fixed;shape=mxgraph.aws4.resourceIcon;resIcon=mxgraph.aws4.s3;" parent="1" vertex="1">
          <mxGeometry x="-676" y="-649" width="50" height="50" as="geometry" />
        </mxCell>
        <mxCell id="o6UnCo15VA87cQb3SErj-11" value="Public subnet" style="points=[[0,0],[0.25,0],[0.5,0],[0.75,0],[1,0],[1,0.25],[1,0.5],[1,0.75],[1,1],[0.75,1],[0.5,1],[0.25,1],[0,1],[0,0.75],[0,0.5],[0,0.25]];outlineConnect=0;gradientColor=none;html=1;whiteSpace=wrap;fontSize=10;fontStyle=0;shape=mxgraph.aws4.group;grIcon=mxgraph.aws4.group_security_group;grStroke=0;strokeColor=#248814;fillColor=#E9F3E6;verticalAlign=top;align=left;spacingLeft=30;fontColor=#248814;dashed=0;" parent="1" vertex="1">
          <mxGeometry x="-420" y="-493" width="220" height="188" as="geometry" />
        </mxCell>
        <mxCell id="o6UnCo15VA87cQb3SErj-12" value="NAT Gateway" style="outlineConnect=0;fontColor=#232F3E;gradientColor=none;fillColor=#5A30B5;strokeColor=none;dashed=0;verticalLabelPosition=bottom;verticalAlign=top;align=center;html=1;fontSize=10;fontStyle=0;aspect=fixed;pointerEvents=1;shape=mxgraph.aws4.nat_gateway;" parent="1" vertex="1">
          <mxGeometry x="-350" y="-426.5" width="55" height="55" as="geometry" />
        </mxCell>
        <mxCell id="o6UnCo15VA87cQb3SErj-19" value="Cache" style="outlineConnect=0;dashed=0;verticalLabelPosition=bottom;verticalAlign=top;align=center;html=1;shape=mxgraph.aws3.elasticache;fillColor=#2E73B8;gradientColor=none;fontSize=10;" parent="1" vertex="1">
          <mxGeometry x="-679" y="0.5" width="50" height="50" as="geometry" />
        </mxCell>
        <mxCell id="o6UnCo15VA87cQb3SErj-58" style="edgeStyle=orthogonalEdgeStyle;rounded=0;orthogonalLoop=1;jettySize=auto;html=1;fontSize=10;" parent="1" source="o6UnCo15VA87cQb3SErj-21" target="o6UnCo15VA87cQb3SErj-22" edge="1">
          <mxGeometry relative="1" as="geometry">
            <Array as="points">
              <mxPoint x="-360" y="-214" />
            </Array>
          </mxGeometry>
        </mxCell>
        <mxCell id="DFf_56WCGIIjxEMHTGOl-1" style="edgeStyle=orthogonalEdgeStyle;rounded=0;orthogonalLoop=1;jettySize=auto;html=1;entryX=0;entryY=0.5;entryDx=0;entryDy=0;entryPerimeter=0;fontSize=10;fontColor=#000000;" edge="1" parent="1" source="o6UnCo15VA87cQb3SErj-21" target="2LN8hkeJdorqVzaSX0oZ-3">
          <mxGeometry relative="1" as="geometry">
            <Array as="points">
              <mxPoint x="-446" y="-232" />
              <mxPoint x="-446" y="-765" />
            </Array>
          </mxGeometry>
        </mxCell>
        <mxCell id="DFf_56WCGIIjxEMHTGOl-6" style="edgeStyle=orthogonalEdgeStyle;rounded=0;orthogonalLoop=1;jettySize=auto;html=1;fontSize=10;fontColor=#000000;startArrow=none;startFill=0;" edge="1" parent="1" source="o6UnCo15VA87cQb3SErj-21" target="DFf_56WCGIIjxEMHTGOl-3">
          <mxGeometry relative="1" as="geometry" />
        </mxCell>
        <mxCell id="o6UnCo15VA87cQb3SErj-21" value="API Gateway" style="outlineConnect=0;dashed=0;verticalLabelPosition=bottom;verticalAlign=top;align=center;html=1;shape=mxgraph.aws3.api_gateway;fillColor=#D9A741;gradientColor=none;fontSize=10;" parent="1" vertex="1">
          <mxGeometry x="-529" y="-262" width="68" height="60" as="geometry" />
        </mxCell>
        <mxCell id="o6UnCo15VA87cQb3SErj-49" value="" style="edgeStyle=orthogonalEdgeStyle;rounded=0;orthogonalLoop=1;jettySize=auto;html=1;fontSize=10;" parent="1" source="o6UnCo15VA87cQb3SErj-22" target="o6UnCo15VA87cQb3SErj-39" edge="1">
          <mxGeometry relative="1" as="geometry" />
        </mxCell>
        <mxCell id="o6UnCo15VA87cQb3SErj-62" style="edgeStyle=orthogonalEdgeStyle;rounded=0;orthogonalLoop=1;jettySize=auto;html=1;fontSize=10;entryX=0;entryY=0.5;entryDx=0;entryDy=0;entryPerimeter=0;" parent="1" source="o6UnCo15VA87cQb3SErj-22" edge="1" target="2LN8hkeJdorqVzaSX0oZ-5">
          <mxGeometry relative="1" as="geometry">
            <mxPoint x="-300" y="-8" as="targetPoint" />
            <Array as="points">
              <mxPoint x="-300" y="-158" />
              <mxPoint x="-300" y="20" />
            </Array>
          </mxGeometry>
        </mxCell>
        <mxCell id="DFf_56WCGIIjxEMHTGOl-2" style="edgeStyle=orthogonalEdgeStyle;rounded=0;orthogonalLoop=1;jettySize=auto;html=1;fontSize=10;fontColor=#000000;" edge="1" parent="1" source="o6UnCo15VA87cQb3SErj-22" target="o6UnCo15VA87cQb3SErj-19">
          <mxGeometry relative="1" as="geometry" />
        </mxCell>
        <mxCell id="o6UnCo15VA87cQb3SErj-22" value="XAPI &amp;amp; APIs" style="points=[[0,0,0],[0.25,0,0],[0.5,0,0],[0.75,0,0],[1,0,0],[0,1,0],[0.25,1,0],[0.5,1,0],[0.75,1,0],[1,1,0],[0,0.25,0],[0,0.5,0],[0,0.75,0],[1,0.25,0],[1,0.5,0],[1,0.75,0]];outlineConnect=0;fontColor=#232F3E;gradientColor=#F78E04;gradientDirection=north;fillColor=#D05C17;strokeColor=#ffffff;dashed=0;verticalLabelPosition=bottom;verticalAlign=top;align=center;html=1;fontSize=10;fontStyle=0;aspect=fixed;shape=mxgraph.aws4.resourceIcon;resIcon=mxgraph.aws4.fargate;" parent="1" vertex="1">
          <mxGeometry x="-390" y="-188" width="59.5" height="59.5" as="geometry" />
        </mxCell>
        <mxCell id="o6UnCo15VA87cQb3SErj-25" value="S3 - Dynamic/Bounded Context&amp;nbsp;" style="points=[[0,0,0],[0.25,0,0],[0.5,0,0],[0.75,0,0],[1,0,0],[0,1,0],[0.25,1,0],[0.5,1,0],[0.75,1,0],[1,1,0],[0,0.25,0],[0,0.5,0],[0,0.75,0],[1,0.25,0],[1,0.5,0],[1,0.75,0]];outlineConnect=0;fontColor=#232F3E;gradientColor=#60A337;gradientDirection=north;fillColor=#277116;strokeColor=#ffffff;dashed=0;verticalLabelPosition=bottom;verticalAlign=top;align=center;html=1;fontSize=10;fontStyle=0;aspect=fixed;shape=mxgraph.aws4.resourceIcon;resIcon=mxgraph.aws4.s3;" parent="1" vertex="1">
          <mxGeometry x="-676" y="-569" width="50" height="50" as="geometry" />
        </mxCell>
        <mxCell id="o6UnCo15VA87cQb3SErj-115" value="" style="edgeStyle=orthogonalEdgeStyle;rounded=0;orthogonalLoop=1;jettySize=auto;html=1;fontSize=10;fontColor=#000000;" parent="1" source="o6UnCo15VA87cQb3SErj-27" target="o6UnCo15VA87cQb3SErj-4" edge="1">
          <mxGeometry relative="1" as="geometry" />
        </mxCell>
        <mxCell id="o6UnCo15VA87cQb3SErj-27" value="WAF" style="points=[[0,0,0],[0.25,0,0],[0.5,0,0],[0.75,0,0],[1,0,0],[0,1,0],[0.25,1,0],[0.5,1,0],[0.75,1,0],[1,1,0],[0,0.25,0],[0,0.5,0],[0,0.75,0],[1,0.25,0],[1,0.5,0],[1,0.75,0]];outlineConnect=0;fontColor=#232F3E;gradientColor=#F54749;gradientDirection=north;fillColor=#C7131F;strokeColor=#ffffff;verticalLabelPosition=bottom;verticalAlign=top;align=center;html=1;fontSize=10;fontStyle=0;aspect=fixed;shape=mxgraph.aws4.resourceIcon;resIcon=mxgraph.aws4.waf;" parent="1" vertex="1">
          <mxGeometry x="-520" y="-687" width="50" height="50" as="geometry" />
        </mxCell>
        <mxCell id="o6UnCo15VA87cQb3SErj-28" value="Shield" style="points=[[0,0,0],[0.25,0,0],[0.5,0,0],[0.75,0,0],[1,0,0],[0,1,0],[0.25,1,0],[0.5,1,0],[0.75,1,0],[1,1,0],[0,0.25,0],[0,0.5,0],[0,0.75,0],[1,0.25,0],[1,0.5,0],[1,0.75,0]];outlineConnect=0;fontColor=#232F3E;gradientColor=#F54749;gradientDirection=north;fillColor=#C7131F;strokeColor=#ffffff;dashed=0;verticalLabelPosition=bottom;verticalAlign=top;align=center;html=1;fontSize=10;fontStyle=0;aspect=fixed;shape=mxgraph.aws4.resourceIcon;resIcon=mxgraph.aws4.shield;" parent="1" vertex="1">
          <mxGeometry x="-200" y="-690" width="50" height="50" as="geometry" />
        </mxCell>
        <mxCell id="o6UnCo15VA87cQb3SErj-29" value="Customer" style="aspect=fixed;pointerEvents=1;shadow=0;dashed=0;html=1;strokeColor=none;labelPosition=center;verticalLabelPosition=bottom;verticalAlign=top;align=center;fillColor=#00188D;shape=mxgraph.azure.user;fontSize=10;" parent="1" vertex="1">
          <mxGeometry x="-525" y="-790" width="47" height="50" as="geometry" />
        </mxCell>
        <mxCell id="o6UnCo15VA87cQb3SErj-93" value="" style="edgeStyle=orthogonalEdgeStyle;rounded=0;orthogonalLoop=1;jettySize=auto;html=1;fontSize=10;dashed=1;startArrow=classicThin;startFill=1;" parent="1" source="o6UnCo15VA87cQb3SErj-30" target="o6UnCo15VA87cQb3SErj-34" edge="1">
          <mxGeometry relative="1" as="geometry" />
        </mxCell>
        <mxCell id="o6UnCo15VA87cQb3SErj-30" value="Corporate data center" style="points=[[0,0],[0.25,0],[0.5,0],[0.75,0],[1,0],[1,0.25],[1,0.5],[1,0.75],[1,1],[0.75,1],[0.5,1],[0.25,1],[0,1],[0,0.75],[0,0.5],[0,0.25]];outlineConnect=0;gradientColor=none;html=1;whiteSpace=wrap;fontSize=10;fontStyle=0;shape=mxgraph.aws4.group;grIcon=mxgraph.aws4.group_corporate_data_center;strokeColor=#5A6C86;fillColor=none;verticalAlign=top;align=left;spacingLeft=30;fontColor=#5A6C86;dashed=0;" parent="1" vertex="1">
          <mxGeometry x="-90" y="-700" width="250" height="471" as="geometry" />
        </mxCell>
        <mxCell id="o6UnCo15VA87cQb3SErj-31" value="" style="shape=cylinder3;whiteSpace=wrap;html=1;boundedLbl=1;backgroundOutline=1;size=15;fontSize=10;" parent="1" vertex="1">
          <mxGeometry x="-20" y="-637" width="60" height="48" as="geometry" />
        </mxCell>
        <mxCell id="o6UnCo15VA87cQb3SErj-32" value="" style="shape=cylinder3;whiteSpace=wrap;html=1;boundedLbl=1;backgroundOutline=1;size=15;fontSize=10;" parent="1" vertex="1">
          <mxGeometry x="40" y="-637" width="60" height="48" as="geometry" />
        </mxCell>
        <mxCell id="o6UnCo15VA87cQb3SErj-33" value="Mainframes" style="shape=cylinder3;whiteSpace=wrap;html=1;boundedLbl=1;backgroundOutline=1;size=15;fontSize=10;" parent="1" vertex="1">
          <mxGeometry y="-603" width="60" height="48" as="geometry" />
        </mxCell>
        <mxCell id="o6UnCo15VA87cQb3SErj-34" value="Kafka &amp;amp; Confluent connectors" style="points=[[0,0,0],[0.25,0,0],[0.5,0,0],[0.75,0,0],[1,0,0],[0,1,0],[0.25,1,0],[0.5,1,0],[0.75,1,0],[1,1,0],[0,0.25,0],[0,0.5,0],[0,0.75,0],[1,0.25,0],[1,0.5,0],[1,0.75,0]];outlineConnect=0;fontColor=#232F3E;gradientColor=#945DF2;gradientDirection=north;fillColor=#5A30B5;strokeColor=#ffffff;dashed=0;verticalLabelPosition=bottom;verticalAlign=top;align=center;html=1;fontSize=10;fontStyle=0;aspect=fixed;shape=mxgraph.aws4.resourceIcon;resIcon=mxgraph.aws4.managed_streaming_for_kafka;" parent="1" vertex="1">
          <mxGeometry x="8.5" y="-172" width="53" height="53" as="geometry" />
        </mxCell>
        <mxCell id="o6UnCo15VA87cQb3SErj-118" style="edgeStyle=orthogonalEdgeStyle;rounded=0;orthogonalLoop=1;jettySize=auto;html=1;entryX=0;entryY=0.5;entryDx=0;entryDy=0;entryPerimeter=0;dashed=1;fontSize=10;fontColor=#000000;startArrow=classicThin;startFill=1;" parent="1" target="o6UnCo15VA87cQb3SErj-34" edge="1">
          <mxGeometry relative="1" as="geometry">
            <mxPoint x="-232" y="-146" as="sourcePoint" />
          </mxGeometry>
        </mxCell>
        <mxCell id="DFf_56WCGIIjxEMHTGOl-9" style="edgeStyle=orthogonalEdgeStyle;rounded=0;orthogonalLoop=1;jettySize=auto;html=1;fontSize=10;fontColor=#000000;startArrow=none;startFill=0;" edge="1" parent="1" source="o6UnCo15VA87cQb3SErj-37" target="2LN8hkeJdorqVzaSX0oZ-5">
          <mxGeometry relative="1" as="geometry" />
        </mxCell>
        <mxCell id="o6UnCo15VA87cQb3SErj-37" value="Hybrid&lt;br&gt;Event Handler" style="outlineConnect=0;dashed=0;verticalLabelPosition=bottom;verticalAlign=top;align=center;html=1;shape=mxgraph.aws3.lambda_function;fillColor=#F58534;gradientColor=none;fontSize=10;" parent="1" vertex="1">
          <mxGeometry x="-279" y="-169" width="47.5" height="50" as="geometry" />
        </mxCell>
        <mxCell id="o6UnCo15VA87cQb3SErj-39" value="Dynamo DB" style="outlineConnect=0;dashed=0;verticalLabelPosition=bottom;verticalAlign=top;align=center;html=1;shape=mxgraph.aws3.dynamo_db;fillColor=#2E73B8;gradientColor=none;fontSize=10;" parent="1" vertex="1">
          <mxGeometry x="-382.75" y="-5.5" width="45" height="43" as="geometry" />
        </mxCell>
        <mxCell id="o6UnCo15VA87cQb3SErj-53" value="" style="shape=cylinder3;whiteSpace=wrap;html=1;boundedLbl=1;backgroundOutline=1;size=15;fontSize=10;" parent="1" vertex="1">
          <mxGeometry x="-20" y="-479" width="60" height="48" as="geometry" />
        </mxCell>
        <mxCell id="o6UnCo15VA87cQb3SErj-54" value="" style="shape=cylinder3;whiteSpace=wrap;html=1;boundedLbl=1;backgroundOutline=1;size=15;fontSize=10;" parent="1" vertex="1">
          <mxGeometry x="40" y="-479" width="60" height="48" as="geometry" />
        </mxCell>
        <mxCell id="o6UnCo15VA87cQb3SErj-55" value="RDBMS/VMs" style="shape=cylinder3;whiteSpace=wrap;html=1;boundedLbl=1;backgroundOutline=1;size=15;fontSize=10;" parent="1" vertex="1">
          <mxGeometry y="-445" width="60" height="48" as="geometry" />
        </mxCell>
        <mxCell id="o6UnCo15VA87cQb3SErj-82" value="Cloud Watch" style="outlineConnect=0;dashed=0;verticalLabelPosition=bottom;verticalAlign=top;align=center;html=1;shape=mxgraph.aws3.cloudwatch;fillColor=#759C3E;gradientColor=none;fontSize=10;" parent="1" vertex="1">
          <mxGeometry x="-678" y="-365" width="60" height="56" as="geometry" />
        </mxCell>
        <mxCell id="o6UnCo15VA87cQb3SErj-83" value="CloudTrail" style="outlineConnect=0;dashed=0;verticalLabelPosition=bottom;verticalAlign=top;align=center;html=1;shape=mxgraph.aws3.cloudtrail;fillColor=#759C3E;gradientColor=none;fontSize=10;" parent="1" vertex="1">
          <mxGeometry x="-684" y="-462" width="66" height="60" as="geometry" />
        </mxCell>
        <mxCell id="o6UnCo15VA87cQb3SErj-84" value="Logs" style="points=[[0,0,0],[0.25,0,0],[0.5,0,0],[0.75,0,0],[1,0,0],[0,1,0],[0.25,1,0],[0.5,1,0],[0.75,1,0],[1,1,0],[0,0.25,0],[0,0.5,0],[0,0.75,0],[1,0.25,0],[1,0.5,0],[1,0.75,0]];outlineConnect=0;fontColor=#232F3E;gradientColor=#60A337;gradientDirection=north;fillColor=#277116;strokeColor=#ffffff;dashed=0;verticalLabelPosition=bottom;verticalAlign=top;align=center;html=1;fontSize=10;fontStyle=0;aspect=fixed;shape=mxgraph.aws4.resourceIcon;resIcon=mxgraph.aws4.s3;" parent="1" vertex="1">
          <mxGeometry x="-673" y="-272" width="50" height="50" as="geometry" />
        </mxCell>
        <mxCell id="o6UnCo15VA87cQb3SErj-87" value="Claims" style="rounded=1;whiteSpace=wrap;html=1;fontSize=10;labelPosition=center;verticalLabelPosition=top;align=center;verticalAlign=bottom;" parent="1" vertex="1">
          <mxGeometry x="-40" y="-360" width="160" height="109" as="geometry" />
        </mxCell>
        <mxCell id="o6UnCo15VA87cQb3SErj-88" value="" style="shape=cylinder3;whiteSpace=wrap;html=1;boundedLbl=1;backgroundOutline=1;size=15;fontSize=10;" parent="1" vertex="1">
          <mxGeometry x="-20" y="-340" width="60" height="48" as="geometry" />
        </mxCell>
        <mxCell id="o6UnCo15VA87cQb3SErj-89" value="" style="shape=cylinder3;whiteSpace=wrap;html=1;boundedLbl=1;backgroundOutline=1;size=15;fontSize=10;" parent="1" vertex="1">
          <mxGeometry x="40" y="-340" width="60" height="48" as="geometry" />
        </mxCell>
        <mxCell id="o6UnCo15VA87cQb3SErj-90" value="MongoDB" style="shape=cylinder3;whiteSpace=wrap;html=1;boundedLbl=1;backgroundOutline=1;size=15;fontSize=10;" parent="1" vertex="1">
          <mxGeometry y="-306" width="60" height="48" as="geometry" />
        </mxCell>
        <mxCell id="o6UnCo15VA87cQb3SErj-95" value="A" style="ellipse;whiteSpace=wrap;html=1;fontSize=10;fillColor=#6666FF;strokeColor=#6666FF;fontColor=#FFFFFF;" parent="1" vertex="1">
          <mxGeometry x="120" y="-690" width="30" height="29.5" as="geometry" />
        </mxCell>
        <mxCell id="o6UnCo15VA87cQb3SErj-96" value="B" style="ellipse;whiteSpace=wrap;html=1;fontSize=10;fillColor=#6666FF;strokeColor=#6666FF;fontColor=#FFFFFF;" parent="1" vertex="1">
          <mxGeometry x="110" y="-195.5" width="30" height="29.5" as="geometry" />
        </mxCell>
        <mxCell id="o6UnCo15VA87cQb3SErj-97" value="1" style="ellipse;whiteSpace=wrap;html=1;fontSize=10;fillColor=#6666FF;strokeColor=#6666FF;fontColor=#FFFFFF;" parent="1" vertex="1">
          <mxGeometry x="-567" y="-777" width="30" height="29.5" as="geometry" />
        </mxCell>
        <mxCell id="o6UnCo15VA87cQb3SErj-98" value="2" style="ellipse;whiteSpace=wrap;html=1;fontSize=10;fillColor=#6666FF;strokeColor=#6666FF;fontColor=#FFFFFF;" parent="1" vertex="1">
          <mxGeometry x="-612" y="-660.5" width="30" height="29.5" as="geometry" />
        </mxCell>
        <mxCell id="o6UnCo15VA87cQb3SErj-99" value="3" style="ellipse;whiteSpace=wrap;html=1;fontSize=10;fillColor=#6666FF;strokeColor=#6666FF;fontColor=#FFFFFF;" parent="1" vertex="1">
          <mxGeometry x="-543" y="-299" width="30" height="29.5" as="geometry" />
        </mxCell>
        <mxCell id="o6UnCo15VA87cQb3SErj-100" value="4" style="ellipse;whiteSpace=wrap;html=1;fontSize=10;fillColor=#6666FF;strokeColor=#6666FF;fontColor=#FFFFFF;" parent="1" vertex="1">
          <mxGeometry x="-429" y="-201.5" width="30" height="29.5" as="geometry" />
        </mxCell>
        <mxCell id="o6UnCo15VA87cQb3SErj-101" value="5" style="ellipse;whiteSpace=wrap;html=1;fontSize=10;fillColor=#6666FF;strokeColor=#6666FF;fontColor=#FFFFFF;" parent="1" vertex="1">
          <mxGeometry x="100" y="-1" width="30" height="29.5" as="geometry" />
        </mxCell>
        <mxCell id="o6UnCo15VA87cQb3SErj-109" style="edgeStyle=orthogonalEdgeStyle;rounded=0;orthogonalLoop=1;jettySize=auto;html=1;dashed=1;fontSize=10;fontColor=#000000;" parent="1" source="o6UnCo15VA87cQb3SErj-102" target="o6UnCo15VA87cQb3SErj-108" edge="1">
          <mxGeometry relative="1" as="geometry" />
        </mxCell>
        <mxCell id="o6UnCo15VA87cQb3SErj-102" value="telemetry" style="aspect=fixed;perimeter=ellipsePerimeter;html=1;align=center;shadow=0;dashed=0;labelBackgroundColor=#ffffff;fontSize=12;spacingTop=3;image;image=img/lib/ibm/applications/actionable_insight.svg;strokeColor=#6666FF;fillColor=#6666FF;" parent="1" vertex="1">
          <mxGeometry x="4" y="0.5" width="46" height="46" as="geometry" />
        </mxCell>
        <mxCell id="o6UnCo15VA87cQb3SErj-104" value="C" style="ellipse;whiteSpace=wrap;html=1;fontSize=10;fillColor=#6666FF;strokeColor=#6666FF;fontColor=#FFFFFF;" parent="1" vertex="1">
          <mxGeometry x="-209" y="-180" width="30" height="29.5" as="geometry" />
        </mxCell>
        <mxCell id="o6UnCo15VA87cQb3SErj-105" value="&lt;font color=&quot;#000000&quot;&gt;Business &amp;amp; Stakeholders&lt;/font&gt;" style="html=1;verticalLabelPosition=bottom;align=center;labelBackgroundColor=#ffffff;verticalAlign=top;strokeWidth=2;strokeColor=#0080F0;shadow=0;dashed=0;shape=mxgraph.ios7.icons.user;fontSize=10;fontColor=#FFFFFF;fillColor=#FFFFFF;" parent="1" vertex="1">
          <mxGeometry x="210" y="-10.5" width="50" height="49.5" as="geometry" />
        </mxCell>
        <mxCell id="o6UnCo15VA87cQb3SErj-106" value="Operations" style="aspect=fixed;html=1;points=[];align=center;image;fontSize=12;image=img/lib/azure2/azure_stack/User_Subscriptions.svg;strokeColor=#6666FF;fillColor=#FFFFFF;" parent="1" vertex="1">
          <mxGeometry x="210" y="104" width="57.7" height="56" as="geometry" />
        </mxCell>
        <mxCell id="o6UnCo15VA87cQb3SErj-110" style="edgeStyle=orthogonalEdgeStyle;rounded=0;orthogonalLoop=1;jettySize=auto;html=1;dashed=1;fontSize=10;fontColor=#000000;" parent="1" source="o6UnCo15VA87cQb3SErj-107" target="o6UnCo15VA87cQb3SErj-108" edge="1">
          <mxGeometry relative="1" as="geometry" />
        </mxCell>
        <mxCell id="o6UnCo15VA87cQb3SErj-107" value="Trace" style="html=1;fillColor=#5184F3;strokeColor=none;verticalAlign=top;labelPosition=center;verticalLabelPosition=bottom;align=center;spacingTop=-6;fontSize=11;fontStyle=1;shape=mxgraph.gcp2.hexIcon;prIcon=trace" parent="1" vertex="1">
          <mxGeometry x="-66" y="68.75" width="66" height="62.5" as="geometry" />
        </mxCell>
        <mxCell id="o6UnCo15VA87cQb3SErj-108" value="dashboard &amp;amp; Alert" style="aspect=fixed;html=1;points=[];align=center;image;fontSize=12;image=img/lib/mscae/Shared_Dashboard.svg;fontColor=#000000;strokeColor=#6666FF;fillColor=#FFFFFF;" parent="1" vertex="1">
          <mxGeometry x="60" y="79.5" width="50" height="41" as="geometry" />
        </mxCell>
        <mxCell id="o6UnCo15VA87cQb3SErj-113" style="edgeStyle=orthogonalEdgeStyle;rounded=0;orthogonalLoop=1;jettySize=auto;html=1;dashed=1;fontSize=10;fontColor=#000000;" parent="1" source="o6UnCo15VA87cQb3SErj-111" edge="1">
          <mxGeometry relative="1" as="geometry">
            <mxPoint x="90" y="130" as="targetPoint" />
          </mxGeometry>
        </mxCell>
        <mxCell id="o6UnCo15VA87cQb3SErj-111" value="logs" style="outlineConnect=0;fontColor=#232F3E;gradientColor=none;strokeColor=#232F3E;fillColor=#ffffff;dashed=0;verticalLabelPosition=bottom;verticalAlign=top;align=center;html=1;fontSize=12;fontStyle=0;aspect=fixed;shape=mxgraph.aws4.resourceIcon;resIcon=mxgraph.aws4.flow_logs;" parent="1" vertex="1">
          <mxGeometry x="2" y="147" width="50" height="50" as="geometry" />
        </mxCell>
        <mxCell id="2LN8hkeJdorqVzaSX0oZ-3" value="IDP" style="html=1;strokeColor=none;fillColor=#0079D6;labelPosition=center;verticalLabelPosition=middle;verticalAlign=top;align=center;fontSize=12;outlineConnect=0;spacingTop=-6;fontColor=#FFFFFF;shape=mxgraph.sitemap.cloud;" parent="1" vertex="1">
          <mxGeometry x="-86" y="-800" width="120" height="70" as="geometry" />
        </mxCell>
        <mxCell id="2LN8hkeJdorqVzaSX0oZ-5" value="Aurora &lt;br&gt;Serverless" style="points=[[0,0,0],[0.25,0,0],[0.5,0,0],[0.75,0,0],[1,0,0],[0,1,0],[0.25,1,0],[0.5,1,0],[0.75,1,0],[1,1,0],[0,0.25,0],[0,0.5,0],[0,0.75,0],[1,0.25,0],[1,0.5,0],[1,0.75,0]];outlineConnect=0;fontColor=#232F3E;gradientColor=#4D72F3;gradientDirection=north;fillColor=#3334B9;strokeColor=#ffffff;dashed=0;verticalLabelPosition=bottom;verticalAlign=top;align=center;html=1;fontSize=12;fontStyle=0;aspect=fixed;shape=mxgraph.aws4.resourceIcon;resIcon=mxgraph.aws4.aurora;" parent="1" vertex="1">
          <mxGeometry x="-278" y="-3" width="45.5" height="45.5" as="geometry" />
        </mxCell>
        <mxCell id="DFf_56WCGIIjxEMHTGOl-7" style="edgeStyle=orthogonalEdgeStyle;rounded=0;orthogonalLoop=1;jettySize=auto;html=1;fontSize=10;fontColor=#000000;startArrow=none;startFill=0;" edge="1" parent="1" source="DFf_56WCGIIjxEMHTGOl-3">
          <mxGeometry relative="1" as="geometry">
            <mxPoint x="8" y="-157" as="targetPoint" />
            <Array as="points">
              <mxPoint x="-113" y="-232" />
              <mxPoint x="-113" y="-157" />
            </Array>
          </mxGeometry>
        </mxCell>
        <mxCell id="DFf_56WCGIIjxEMHTGOl-3" value="Hybrid" style="outlineConnect=0;dashed=0;verticalLabelPosition=bottom;verticalAlign=top;align=center;html=1;shape=mxgraph.aws3.lambda_function;fillColor=#F58534;gradientColor=none;fontSize=10;" vertex="1" parent="1">
          <mxGeometry x="-315" y="-257" width="47.5" height="50" as="geometry" />
        </mxCell>
      </root>
    </mxGraphModel>
  </diagram>
</mxfile>
